<svg width="208" height="170" viewBox="0 0 208 170" fill="none" xmlns="http://www.w3.org/2000/svg">
<g clip-path="url(#clip0)">
<path opacity="0.1" d="M203.432 169.366C205.189 167.605 203.155 162.712 198.888 158.437C194.621 154.163 189.736 152.125 187.979 153.886C186.221 155.646 188.255 160.539 192.523 164.814C196.79 169.089 201.674 171.126 203.432 169.366Z" fill="#A41726"/>
<path d="M196.479 162.34C197.813 162.34 198.895 160.921 198.895 159.171C198.895 157.421 197.813 156.002 196.479 156.002C195.144 156.002 194.063 157.421 194.063 159.171C194.063 160.921 195.144 162.34 196.479 162.34Z" fill="#3F3D56"/>
<path d="M196.479 158.468C197.813 158.468 198.895 157.049 198.895 155.299C198.895 153.548 197.813 152.13 196.479 152.13C195.144 152.13 194.063 153.548 194.063 155.299C194.063 157.049 195.144 158.468 196.479 158.468Z" fill="#3F3D56"/>
<path d="M196.479 154.595C197.813 154.595 198.895 153.176 198.895 151.426C198.895 149.676 197.813 148.257 196.479 148.257C195.144 148.257 194.063 149.676 194.063 151.426C194.063 153.176 195.144 154.595 196.479 154.595Z" fill="#3F3D56"/>
<path d="M196.479 150.722C197.813 150.722 198.895 149.303 198.895 147.553C198.895 145.803 197.813 144.384 196.479 144.384C195.144 144.384 194.063 145.803 194.063 147.553C194.063 149.303 195.144 150.722 196.479 150.722Z" fill="#3F3D56"/>
<path d="M196.479 146.849C197.813 146.849 198.895 145.431 198.895 143.68C198.895 141.93 197.813 140.511 196.479 140.511C195.144 140.511 194.063 141.93 194.063 143.68C194.063 145.431 195.144 146.849 196.479 146.849Z" fill="#3F3D56"/>
<path d="M196.479 142.977C197.813 142.977 198.895 141.558 198.895 139.808C198.895 138.057 197.813 136.639 196.479 136.639C195.144 136.639 194.063 138.057 194.063 139.808C194.063 141.558 195.144 142.977 196.479 142.977Z" fill="#3F3D56"/>
<path d="M196.479 139.104C197.813 139.104 198.895 137.685 198.895 135.935C198.895 134.185 197.813 132.766 196.479 132.766C195.144 132.766 194.063 134.185 194.063 135.935C194.063 137.685 195.144 139.104 196.479 139.104Z" fill="#3F3D56"/>
<path d="M205.523 109.433C205.854 109.012 206.155 108.569 206.424 108.107L200.075 107.062L206.942 107.112C207.601 105.676 207.96 104.121 207.999 102.542C208.038 100.962 207.755 99.3914 207.167 97.9251L197.956 102.714L206.446 96.4568C205.651 95.0777 204.581 93.8775 203.302 92.931C202.023 91.9845 200.563 91.3121 199.014 90.9557C197.464 90.5993 195.858 90.5665 194.295 90.8593C192.732 91.1522 191.246 91.7644 189.93 92.6579C188.614 93.5514 187.496 94.7069 186.645 96.0524C185.794 97.3979 185.229 98.9046 184.985 100.478C184.741 102.052 184.824 103.66 185.227 105.2C185.631 106.741 186.347 108.182 187.331 109.433C186.816 110.087 186.374 110.796 186.011 111.546L194.252 115.832L185.471 112.877C184.854 114.704 184.702 116.656 185.028 118.557C185.354 120.458 186.148 122.248 187.337 123.764C185.995 125.474 185.159 127.528 184.927 129.692C184.695 131.855 185.075 134.04 186.024 135.997C186.973 137.954 188.452 139.604 190.293 140.758C192.134 141.913 194.262 142.525 196.434 142.525C198.606 142.525 200.734 141.913 202.575 140.758C204.415 139.604 205.895 137.954 206.844 135.997C207.793 134.04 208.173 131.855 207.94 129.692C207.708 127.528 206.873 125.474 205.53 123.764C207.134 121.721 208.007 119.196 208.007 116.596C208.007 113.996 207.134 111.472 205.53 109.428L205.523 109.433Z" fill="#A41726"/>
<path opacity="0.1" d="M184.854 116.601C184.849 119.201 185.722 121.727 187.331 123.769C185.988 125.479 185.153 127.533 184.92 129.696C184.688 131.859 185.068 134.044 186.017 136.001C186.966 137.958 188.445 139.608 190.286 140.763C192.127 141.917 194.255 142.53 196.427 142.53C198.599 142.53 200.727 141.917 202.568 140.763C204.409 139.608 205.888 137.958 206.837 136.001C207.786 134.044 208.166 131.859 207.934 129.696C207.701 127.533 206.866 125.479 205.523 123.769C207.075 121.797 184.854 115.299 184.854 116.601Z" fill="black"/>
<path d="M190.701 0V162.397L135.763 154.728L68.9791 168.376L68.441 168.487L15.304 153.826V12.6309L70.4674 0L130.809 12.6309L133.104 12.1459L190.701 0Z" fill="#444053"/>
<path d="M181.47 8.86865V154.171L132.316 147.31L72.5614 159.521L72.0795 159.618L24.5354 146.502V20.1688L73.8943 8.86865L127.882 20.1688L129.936 19.7357L181.47 8.86865Z" fill="white"/>
<path opacity="0.1" d="M135.763 154.728L68.979 168.376L70.4673 0L130.809 12.6309L133.104 12.1459L135.763 154.728Z" fill="black"/>
<g opacity="0.3">
<path opacity="0.3" d="M129.094 31.1261L129.121 78.379H148.709V58.9816H182.258L186.198 53.9203" stroke="#444053" stroke-width="3" stroke-miterlimit="10"/>
<path opacity="0.3" d="M20.0322 46.1252H92.8705L97.3737 44.0952H99.1749V89.6565H130.697L132.048 93.7164V114.242H156.365V139.616" stroke="#444053" stroke-width="3" stroke-miterlimit="10"/>
<path opacity="0.3" d="M108.796 139.616V89.6566" stroke="#444053" stroke-width="3" stroke-miterlimit="10"/>
<path opacity="0.3" d="M186.198 126.232H108.796" stroke="#444053" stroke-width="3" stroke-miterlimit="10"/>
<path opacity="0.3" d="M166.812 31.1261V139.616" stroke="#444053" stroke-width="3" stroke-miterlimit="10"/>
<path opacity="0.3" d="M19.8071 116.641H186.198" stroke="#444053" stroke-width="3" stroke-miterlimit="10"/>
<path opacity="0.3" d="M40.0579 139.616V31.1261" stroke="#444053" stroke-width="3" stroke-miterlimit="10"/>
<path opacity="0.3" d="M78.7351 31.1261V139.616" stroke="#444053" stroke-width="3" stroke-miterlimit="10"/>
<path opacity="0.3" d="M20.0322 58.5305L148.709 58.9816" stroke="#444053" stroke-width="3" stroke-miterlimit="10"/>
<path opacity="0.3" d="M57.4827 31.3223V139.616" stroke="#444053" stroke-width="3" stroke-miterlimit="10"/>
<path opacity="0.3" d="M19.8071 83.6388H78.7352L108.796 116.641" stroke="#444053" stroke-width="3" stroke-miterlimit="10"/>
<path opacity="0.3" d="M115.307 31.1261V89.6566" stroke="#444053" stroke-width="3" stroke-miterlimit="10"/>
<path opacity="0.3" d="M108.796 100.14H186.198" stroke="#444053" stroke-width="3" stroke-miterlimit="10"/>
</g>
<path d="M131.935 99.6935H109.194V89.7693L130.697 89.6565L132.048 93.4908L131.935 99.6935Z" fill="#A41726"/>
<path d="M120.677 48.2679C117.376 48.2679 114.21 49.5816 111.876 51.9199C109.542 54.2582 108.231 57.4296 108.231 60.7364C108.231 67.6225 120.677 89.9948 120.677 89.9948C120.677 89.9948 133.124 67.6315 133.124 60.7364C133.124 57.4296 131.813 54.2582 129.479 51.9199C127.144 49.5816 123.978 48.2679 120.677 48.2679V48.2679ZM120.677 66.0549C119.594 66.0549 118.536 65.7332 117.635 65.1304C116.735 64.5277 116.033 63.671 115.618 62.6687C115.204 61.6663 115.096 60.5634 115.307 59.4993C115.518 58.4353 116.04 57.4579 116.805 56.6907C117.571 55.9236 118.547 55.4011 119.609 55.1895C120.671 54.9778 121.772 55.0865 122.773 55.5016C123.773 55.9168 124.629 56.6199 125.23 57.522C125.832 58.424 126.153 59.4846 126.153 60.5695C126.153 62.0239 125.575 63.4186 124.549 64.4468C123.522 65.475 122.129 66.0526 120.677 66.0526V66.0549Z" fill="#A41726"/>
<path opacity="0.1" d="M120.677 48.2679C117.376 48.2679 114.21 49.5816 111.876 51.9199C109.542 54.2582 108.231 57.4296 108.231 60.7364C108.231 67.6225 120.677 89.9948 120.677 89.9948C120.677 89.9948 133.124 67.6315 133.124 60.7364C133.124 57.4296 131.813 54.2582 129.479 51.9199C127.144 49.5816 123.978 48.2679 120.677 48.2679V48.2679ZM120.677 66.0549C119.594 66.0549 118.536 65.7332 117.635 65.1304C116.735 64.5277 116.033 63.671 115.618 62.6687C115.204 61.6663 115.096 60.5634 115.307 59.4993C115.518 58.4353 116.04 57.4579 116.805 56.6907C117.571 55.9236 118.547 55.4011 119.609 55.1895C120.671 54.9778 121.772 55.0865 122.773 55.5016C123.773 55.9168 124.629 56.6199 125.23 57.522C125.832 58.424 126.153 59.4846 126.153 60.5695C126.153 62.0239 125.575 63.4186 124.549 64.4468C123.522 65.475 122.129 66.0526 120.677 66.0526V66.0549Z" fill="black"/>
<path d="M120.677 50.0723C117.376 50.0723 114.21 51.3859 111.876 53.7242C109.542 56.0625 108.231 59.2339 108.231 62.5407C108.231 69.4268 120.677 91.7992 120.677 91.7992C120.677 91.7992 133.124 69.4358 133.124 62.5407C133.124 59.2339 131.813 56.0625 129.479 53.7242C127.144 51.3859 123.978 50.0723 120.677 50.0723V50.0723ZM120.677 67.8592C119.594 67.8592 118.536 67.5375 117.635 66.9348C116.735 66.332 116.033 65.4753 115.618 64.473C115.204 63.4707 115.096 62.3677 115.307 61.3037C115.518 60.2396 116.04 59.2622 116.805 58.4951C117.571 57.7279 118.547 57.2055 119.609 56.9938C120.671 56.7822 121.772 56.8908 122.773 57.306C123.773 57.7211 124.629 58.4242 125.23 59.3263C125.832 60.2284 126.153 61.2889 126.153 62.3738C126.153 63.8282 125.575 65.2229 124.549 66.2511C123.522 67.2793 122.129 67.857 120.677 67.857V67.8592Z" fill="#A41726"/>
<path opacity="0.1" d="M116.459 168.278C120.279 166.63 122.826 164.016 122.149 162.439C121.471 160.862 117.824 160.921 114.004 162.569C110.184 164.217 107.636 166.831 108.314 168.408C108.992 169.984 112.638 169.926 116.459 168.278Z" fill="#A41726"/>
<path d="M115.143 166.378C116.063 166.378 116.809 165.4 116.809 164.194C116.809 162.988 116.063 162.011 115.143 162.011C114.223 162.011 113.477 162.988 113.477 164.194C113.477 165.4 114.223 166.378 115.143 166.378Z" fill="#3F3D56"/>
<path d="M115.143 163.707C116.063 163.707 116.809 162.73 116.809 161.524C116.809 160.318 116.063 159.341 115.143 159.341C114.223 159.341 113.477 160.318 113.477 161.524C113.477 162.73 114.223 163.707 115.143 163.707Z" fill="#3F3D56"/>
<path d="M115.143 161.039C116.063 161.039 116.809 160.061 116.809 158.855C116.809 157.65 116.063 156.672 115.143 156.672C114.223 156.672 113.477 157.65 113.477 158.855C113.477 160.061 114.223 161.039 115.143 161.039Z" fill="#3F3D56"/>
<path d="M115.143 158.371C116.063 158.371 116.809 157.393 116.809 156.187C116.809 154.981 116.063 154.004 115.143 154.004C114.223 154.004 113.477 154.981 113.477 156.187C113.477 157.393 114.223 158.371 115.143 158.371Z" fill="#3F3D56"/>
<path d="M115.143 155.7C116.063 155.7 116.809 154.723 116.809 153.517C116.809 152.311 116.063 151.333 115.143 151.333C114.223 151.333 113.477 152.311 113.477 153.517C113.477 154.723 114.223 155.7 115.143 155.7Z" fill="#3F3D56"/>
<path d="M115.143 153.032C116.063 153.032 116.809 152.054 116.809 150.848C116.809 149.643 116.063 148.665 115.143 148.665C114.223 148.665 113.477 149.643 113.477 150.848C113.477 152.054 114.223 153.032 115.143 153.032Z" fill="#3F3D56"/>
<path d="M115.143 150.363C116.063 150.363 116.809 149.386 116.809 148.18C116.809 146.974 116.063 145.997 115.143 145.997C114.223 145.997 113.477 146.974 113.477 148.18C113.477 149.386 114.223 150.363 115.143 150.363Z" fill="#3F3D56"/>
<path d="M108.908 129.913C108.681 129.626 108.474 129.325 108.287 129.011L112.664 128.289L107.936 128.325C107.482 127.335 107.235 126.264 107.209 125.175C107.182 124.087 107.378 123.004 107.783 121.994L114.132 125.282L108.278 120.97C108.826 120.02 109.564 119.193 110.445 118.541C111.327 117.889 112.333 117.426 113.4 117.18C114.468 116.935 115.575 116.912 116.652 117.114C117.729 117.316 118.753 117.738 119.66 118.354C120.567 118.969 121.337 119.765 121.924 120.693C122.51 121.62 122.899 122.658 123.067 123.742C123.235 124.827 123.179 125.934 122.901 126.996C122.623 128.058 122.13 129.051 121.452 129.913C121.803 130.365 122.105 130.853 122.353 131.37L116.676 134.327L122.733 132.297C123.158 133.556 123.264 134.902 123.039 136.212C122.815 137.522 122.268 138.756 121.447 139.801C122.373 140.98 122.949 142.396 123.109 143.887C123.27 145.378 123.008 146.884 122.354 148.233C121.7 149.582 120.68 150.72 119.411 151.516C118.142 152.311 116.675 152.734 115.178 152.734C113.681 152.734 112.214 152.311 110.945 151.516C109.676 150.72 108.656 149.582 108.002 148.233C107.348 146.884 107.086 145.378 107.247 143.887C107.407 142.396 107.983 140.98 108.908 139.801C107.803 138.392 107.202 136.652 107.202 134.86C107.202 133.068 107.803 131.328 108.908 129.92V129.913Z" fill="#A41726"/>
<path opacity="0.1" d="M123.154 134.846C123.157 136.638 122.556 138.38 121.448 139.787C122.373 140.966 122.949 142.382 123.109 143.873C123.27 145.364 123.008 146.871 122.354 148.22C121.7 149.569 120.68 150.706 119.411 151.502C118.142 152.298 116.675 152.72 115.178 152.72C113.681 152.72 112.214 152.298 110.945 151.502C109.676 150.706 108.656 149.569 108.002 148.22C107.348 146.871 107.086 145.364 107.247 143.873C107.407 142.382 107.983 140.966 108.909 139.787C107.839 138.434 123.154 133.957 123.154 134.846Z" fill="black"/>
<path opacity="0.1" d="M18.5777 164.403C20.3354 162.642 18.301 157.75 14.0338 153.475C9.76661 149.2 4.88245 147.162 3.12475 148.923C1.36704 150.684 3.40139 155.577 7.6686 159.851C11.9358 164.126 16.82 166.164 18.5777 164.403Z" fill="#A41726"/>
<path d="M11.6249 157.378C12.9592 157.378 14.0408 155.959 14.0408 154.209C14.0408 152.459 12.9592 151.04 11.6249 151.04C10.2906 151.04 9.20898 152.459 9.20898 154.209C9.20898 155.959 10.2906 157.378 11.6249 157.378Z" fill="#3F3D56"/>
<path d="M11.6249 153.505C12.9592 153.505 14.0408 152.087 14.0408 150.336C14.0408 148.586 12.9592 147.167 11.6249 147.167C10.2906 147.167 9.20898 148.586 9.20898 150.336C9.20898 152.087 10.2906 153.505 11.6249 153.505Z" fill="#3F3D56"/>
<path d="M11.6249 149.633C12.9592 149.633 14.0408 148.214 14.0408 146.464C14.0408 144.714 12.9592 143.295 11.6249 143.295C10.2906 143.295 9.20898 144.714 9.20898 146.464C9.20898 148.214 10.2906 149.633 11.6249 149.633Z" fill="#3F3D56"/>
<path d="M11.6249 145.76C12.9592 145.76 14.0408 144.341 14.0408 142.591C14.0408 140.841 12.9592 139.422 11.6249 139.422C10.2906 139.422 9.20898 140.841 9.20898 142.591C9.20898 144.341 10.2906 145.76 11.6249 145.76Z" fill="#3F3D56"/>
<path d="M11.6249 141.887C12.9592 141.887 14.0408 140.468 14.0408 138.718C14.0408 136.968 12.9592 135.549 11.6249 135.549C10.2906 135.549 9.20898 136.968 9.20898 138.718C9.20898 140.468 10.2906 141.887 11.6249 141.887Z" fill="#3F3D56"/>
<path d="M11.6249 138.015C12.9592 138.015 14.0408 136.596 14.0408 134.846C14.0408 133.095 12.9592 131.677 11.6249 131.677C10.2906 131.677 9.20898 133.095 9.20898 134.846C9.20898 136.596 10.2906 138.015 11.6249 138.015Z" fill="#3F3D56"/>
<path d="M11.6249 134.142C12.9592 134.142 14.0408 132.723 14.0408 130.973C14.0408 129.223 12.9592 127.804 11.6249 127.804C10.2906 127.804 9.20898 129.223 9.20898 130.973C9.20898 132.723 10.2906 134.142 11.6249 134.142Z" fill="#3F3D56"/>
<path d="M20.6693 104.471C20.9999 104.05 21.3008 103.607 21.57 103.144L15.2205 102.1L22.0878 102.15C22.7466 100.714 23.1063 99.1592 23.145 97.5797C23.1838 96.0002 22.9006 94.4293 22.313 92.9631L13.1018 97.7516L21.5925 91.4948C20.7972 90.1156 19.7267 88.9154 18.4479 87.969C17.1692 87.0225 15.7095 86.3501 14.1598 85.9937C12.6102 85.6372 11.0039 85.6044 9.44106 85.8973C7.87822 86.1902 6.39237 86.8024 5.07614 87.6959C3.75992 88.5893 2.64155 89.7448 1.79077 91.0904C0.939986 92.4359 0.375032 93.9426 0.131138 95.5164C-0.112755 97.0903 -0.0303587 98.6977 0.373185 100.238C0.776729 101.779 1.49277 103.22 2.47666 104.471C1.96196 105.125 1.51958 105.834 1.15724 106.584L9.39798 110.87L0.61686 107.915C0.000284807 109.742 -0.151936 111.694 0.173963 113.595C0.499863 115.496 1.2936 117.286 2.48341 118.802C1.14068 120.512 0.305408 122.566 0.0730867 124.73C-0.159235 126.893 0.220772 129.078 1.16966 131.035C2.11855 132.992 3.59803 134.642 5.43894 135.796C7.27984 136.951 9.40788 137.563 11.5798 137.563C13.7516 137.563 15.8797 136.951 17.7206 135.796C19.5615 134.642 21.041 132.992 21.9898 131.035C22.9387 129.078 23.3187 126.893 23.0864 124.73C22.8541 122.566 22.0188 120.512 20.6761 118.802C22.2805 116.759 23.1527 114.234 23.1527 111.634C23.1527 109.034 22.2805 106.51 20.6761 104.466L20.6693 104.471Z" fill="#A41726"/>
<path opacity="0.1" d="M1.61912e-05 111.639C-0.00433496 114.239 0.868417 116.765 2.47674 118.807C1.13401 120.517 0.298738 122.571 0.0664165 124.734C-0.165905 126.897 0.214101 129.082 1.16299 131.039C2.11188 132.996 3.59136 134.646 5.43227 135.801C7.27317 136.955 9.40121 137.567 11.5731 137.567C13.745 137.567 15.873 136.955 17.7139 135.801C19.5548 134.646 21.0343 132.996 21.9832 131.039C22.9321 129.082 23.3121 126.897 23.0797 124.734C22.8474 122.571 22.0122 120.517 20.6694 118.807C22.2208 116.835 1.61912e-05 110.337 1.61912e-05 111.639Z" fill="black"/>
</g>
<defs>
<clipPath id="clip0">
<rect width="208" height="170" fill="white"/>
</clipPath>
</defs>
</svg>
